<?xml version="1.0" encoding="UTF-8" standalone="no"?>
<!-- Created with Inkscape (http://www.inkscape.org/) -->
<svg
   xmlns:dc="http://purl.org/dc/elements/1.1/"
   xmlns:cc="http://web.resource.org/cc/"
   xmlns:rdf="http://www.w3.org/1999/02/22-rdf-syntax-ns#"
   xmlns:svg="http://www.w3.org/2000/svg"
   xmlns="http://www.w3.org/2000/svg"
   xmlns:sodipodi="http://sodipodi.sourceforge.net/DTD/sodipodi-0.dtd"
   xmlns:inkscape="http://www.inkscape.org/namespaces/inkscape"
   width="617.87415"
   height="928.91278"
   id="svg2"
   sodipodi:version="0.32"
   inkscape:version="0.44.1"
   version="1.0"
   sodipodi:docbase="/home/chm/Desktop"
   sodipodi:docname="Sachsen_Signet_gruen.svg">
  <defs
     id="defs4" />
  <sodipodi:namedview
     id="base"
     pagecolor="#ffffff"
     bordercolor="#666666"
     borderopacity="1.0"
     inkscape:pageopacity="0.0"
     inkscape:pageshadow="2"
     inkscape:zoom="0.26906627"
     inkscape:cx="687.11696"
     inkscape:cy="478.53995"
     inkscape:document-units="px"
     inkscape:current-layer="layer1"
     inkscape:window-width="939"
     inkscape:window-height="623"
     inkscape:window-x="320"
     inkscape:window-y="153" />
  <metadata
     id="metadata7">
    <rdf:RDF>
      <cc:Work
         rdf:about="">
        <dc:format>image/svg+xml</dc:format>
        <dc:type
           rdf:resource="http://purl.org/dc/dcmitype/StillImage" />
      </cc:Work>
    </rdf:RDF>
  </metadata>
  <g
     inkscape:label="Ebene 1"
     inkscape:groupmode="layer"
     id="layer1"
     transform="translate(-44.55232,-25.13488)">
    <g
       id="g1929">
      <path
         id="path1935"
         d="M 194.46875,216.40625 C 77.794301,216.40676 65.716345,216.48071 65.625,216.71875 C 65.438401,217.20503 65.914406,224.54576 66.40625,228.71875 C 68.468918,246.21927 73.424321,261.49571 80.625,272.5625 C 89.402282,286.05237 101.3165,293.84254 116.3125,295.84375 C 118.89189,296.18798 133.42051,296.19546 375.9375,296.21875 L 632.8125,296.25 L 633,295.6875 C 633.13194,295.34048 633.19035,281.06801 633.15625,255.8125 L 633.09375,216.5 L 349.4375,216.4375 C 283.86725,216.42534 233.36023,216.40608 194.46875,216.40625 z M 423.28125,374 C 271.41804,374 213.72832,374.05157 213.625,374.21875 C 213.54659,374.34561 213.43436,376.8786 213.375,379.84375 C 212.96925,400.11096 217.38927,418.27203 225.78125,430.8125 C 235.33605,445.09063 249.66794,452.72707 268.59375,453.625 C 270.38538,453.70999 353.12025,453.79107 452.46875,453.78125 L 633.09375,453.75 L 633.15625,414.40625 C 633.19034,389.15075 633.13194,374.87825 633,374.53125 L 632.8125,374 L 423.28125,374 z M 65.71875,380.65625 C 65.529884,380.84512 65.529927,452.90493 65.71875,453.09375 C 65.921524,453.29654 138.03084,453.26541 138.15625,453.0625 C 138.29932,452.83103 65.906021,380.46898 65.71875,380.65625 z M 164.53125,478.875 L 115.09375,478.9375 L 65.6875,478.96875 L 65.625,546.03125 C 65.595411,582.90405 65.601388,613.16799 65.65625,613.3125 C 65.735878,613.52222 89.311975,613.59373 182.59375,613.59375 C 254.88195,613.59375 299.48732,613.49662 299.5625,613.375 C 299.62931,613.26689 269.29684,582.96954 232.125,546.03125 L 164.53125,478.875 z M 499.4375,531.6875 L 365.375,531.71875 L 365.28125,533.3125 C 365.05041,538.69273 366.46013,550.71338 368.1875,558.125 C 371.39746,571.89811 376.51293,582.71881 384,591.71875 C 393.1099,602.6695 406.53548,609.57256 421.6875,611.0625 C 423.07457,611.19889 424.35788,611.34024 424.53125,611.375 C 424.70463,611.40976 471.90085,611.42183 529.40625,611.40625 L 633.9375,611.375 L 633.875,571.65625 C 633.83977,549.80999 633.74249,531.86806 633.65625,531.78125 C 633.57002,531.69448 573.17722,531.65851 499.4375,531.6875 z M 324.6875,639.21875 L 254.34375,639.25 C 215.65351,639.26702 157.38197,639.33657 124.84375,639.40625 L 65.6875,639.53125 L 65.59375,647.09375 C 65.385726,670.65663 66.950607,688.91137 70.84375,708.59375 C 74.545524,727.30863 80.949078,747.52338 88.59375,764.5625 C 90.053663,767.81647 91.444363,770.88374 91.65625,771.375 L 92.03125,772.25 L 273.625,772.25 C 423.20971,772.25 455.21222,772.19548 455.15625,771.96875 C 455.11889,771.81737 425.77073,741.90117 389.90625,705.46875 L 324.6875,639.21875 z M 630.46875,693.4375 L 572.84375,693.5 L 515.21875,693.5625 L 515.125,695.03125 C 515.08736,695.84037 515.18556,698.47885 515.3125,700.90625 C 516.11708,716.29579 519.38476,729.69502 525.125,741 C 535.08367,760.61282 551.82019,771.37583 574.375,772.6875 C 579.00327,772.95667 606.76885,772.71705 607.0625,772.40625 C 607.19669,772.2642 609.08813,768.06642 611.25,763.0625 C 614.7022,755.07205 615.58463,752.76024 618.5,744.21875 C 621.51687,735.37975 622.0424,733.59304 624.375,724.4375 C 626.67919,715.39375 627.13515,713.33399 628.71875,704.375 C 629.68893,698.88639 630.46877,694.19965 630.46875,693.9375 L 630.46875,693.4375 z M 483.25,797.84375 L 314.1875,798.09375 C 221.19639,798.22018 136.34585,798.31246 125.625,798.3125 C 112.86482,798.31254 106.125,798.39468 106.125,798.53125 C 106.125,798.646 108.2815,801.9418 110.90625,805.84375 C 147.19632,859.79288 202.57862,900.08236 266.3125,918.9375 C 288.72153,925.56704 313.53678,929.74062 335.9375,930.625 C 346.62454,931.04692 361.88855,930.87139 370.71875,930.21875 C 428.63821,925.93783 482.91841,905.09024 527.8125,869.90625 C 533.34132,865.57325 542.4375,857.84339 542.4375,857.46875 C 542.4375,857.33038 529.11286,843.85679 512.84375,827.53125 L 483.25,797.84375 z "
         style="fill:#1e8d2c" />
      <path
         id="path1952"
         d="M 176.78125,50.03125 C 176.60077,50.03125 168.54354,68.140408 155.09375,98.78125 C 143.32264,125.59783 133.66172,147.66802 133.65625,147.8125 C 133.64853,148.01653 134.95468,148.09375 139.4375,148.09375 C 145.16775,148.09375 145.19207,148.08359 145.4375,147.625 C 145.57348,147.37094 148.09638,141.46802 151.03125,134.53125 C 153.9661,127.59447 156.48417,121.87072 156.625,121.78125 C 156.95125,121.57394 195.67452,121.54283 195.96875,121.75 C 196.08936,121.83493 198.59707,127.66785 201.53125,134.71875 C 204.46542,141.76966 206.95335,147.66802 207.0625,147.8125 C 207.21281,148.01143 208.67426,148.09375 213.03125,148.09375 C 218.39623,148.09375 218.78125,148.06571 218.78125,147.71875 C 218.78125,147.01926 177.08205,50.03125 176.78125,50.03125 z M 554.0625,50.59375 C 553.82918,50.537236 553.78128,58.748211 553.78125,99.3125 L 553.78125,148.09375 L 559.125,148.09375 L 564.5,148.09375 L 564.5,112.46875 C 564.5,90.36765 564.56437,76.826087 564.6875,76.75 C 564.7966,76.68257 579.20471,91.616242 596.6875,109.96875 C 614.17029,128.32127 630.38851,145.35624 632.75,147.8125 C 635.11153,150.26876 637.11753,152.28125 637.21875,152.28125 C 637.32353,152.28125 637.40623,131.18639 637.40625,103.3125 L 637.40625,54.34375 L 632.0625,54.34375 L 626.6875,54.34375 L 626.65625,90.21875 C 626.61474,118.24556 626.54356,126.125 626.34375,126.125 C 626.20302,126.125 609.94948,109.15442 590.21875,88.40625 C 570.48803,67.65808 554.21681,50.63112 554.0625,50.59375 z M 99.6875,52.9375 C 98.782686,52.908513 97.978478,52.981521 96.6875,53.09375 C 89.454592,53.722535 83.737171,56.38262 79.1875,61.28125 C 74.795438,66.01019 72.795692,71.929449 73.21875,78.84375 C 73.561471,84.44508 75.376562,88.370557 79.5,92.3125 C 82.820477,95.48682 87.045618,98.02746 94.875,101.53125 C 96.608831,102.30717 100.21646,104.00262 102.875,105.3125 C 110.4482,109.04387 113.37481,111.54394 115.1875,115.84375 C 117.93465,122.36019 115.46707,130.86914 109.46875,135.5625 C 105.91375,138.3441 101.85066,139.69385 97,139.6875 C 91.014384,139.67968 85.578158,136.79989 82.5,132 C 81.312879,130.14887 79.936242,127.10163 79.3125,124.90625 C 79.011514,123.84686 78.679316,122.87382 78.59375,122.78125 C 78.461016,122.63766 68.569247,125.25366 68.3125,125.5 C 68.262469,125.548 68.630692,126.92829 69.125,128.5625 C 70.778572,134.02934 73.347205,138.37726 77.0625,142 C 79.563555,144.43875 81.751592,145.95822 84.6875,147.25 C 86.61615,148.09859 90.379069,149.14822 92.375,149.40625 C 93.671224,149.57382 100.40285,149.52829 102.15625,149.34375 C 104.78478,149.06711 108.74774,147.82205 111.59375,146.375 C 116.44156,143.91016 120.95782,139.53834 123.59375,134.75 C 127.49018,127.67187 128.20729,117.96584 125.3125,111.09375 C 124.2718,108.62318 122.73264,106.54589 120.0625,103.9375 C 115.98831,99.95751 112.15627,97.645792 102.78125,93.59375 C 96.085897,90.6999 90.630654,87.832362 88.5,86.09375 C 86.899588,84.78782 85.401545,82.811107 84.65625,80.96875 C 84.011122,79.374 83.977729,79.093631 84,76.9375 C 84.026804,74.3423 84.504846,72.6349 85.84375,70.25 C 88.40082,65.69526 93.520773,62.935552 99.40625,62.9375 C 103.52959,62.93887 106.44362,63.836047 109.53125,66.125 C 110.87802,67.1234 112.8755,69.444626 114.5,71.84375 C 114.87177,72.39279 115.3104,72.843754 115.46875,72.84375 C 115.7454,72.84375 122.6669,68.504022 123.4375,67.84375 C 123.64385,67.66694 123.74475,67.399203 123.6875,67.25 C 123.44175,66.60962 119.35235,61.310171 118.5,60.53125 C 117.98614,60.06165 116.6218,58.91761 115.46875,58 C 113.6203,56.529 112.99822,56.203158 110.21875,55.0625 C 107.13269,53.796026 107.00517,53.73125 103.3125,53.28125 C 101.60266,53.072884 100.59231,52.966487 99.6875,52.9375 z M 270.28125,52.9375 C 265.00165,53.08557 259.73705,54.049254 254.9375,55.8125 C 248.01178,58.35685 242.55808,61.87553 237.1875,67.25 C 229.49534,74.94771 225.09839,83.452648 223.375,93.96875 C 222.77115,97.6535 222.72242,105.21568 223.28125,108.6875 C 224.60739,116.92626 227.62954,124.09953 232.5,130.53125 C 234.32665,132.94344 239.7525,138.26734 242.1875,140.0625 C 248.70384,144.8665 255.55219,147.78257 263.65625,149.15625 C 265.65193,149.49452 266.80725,149.53968 272.25,149.46875 L 278.5625,149.375 L 282.46875,148.4375 C 287.46884,147.2213 291.60091,145.52788 296.21875,142.8125 L 299.59375,140.8125 L 299.625,134.25 C 299.66886,129.06793 299.64727,127.68286 299.4375,127.6875 C 299.29137,127.69073 297.68805,128.90448 295.875,130.375 C 291.33417,134.05792 287.27169,136.32651 282.28125,137.9375 C 279.04523,138.98214 278.46492,139.08083 274.875,139.4375 C 269.06222,140.01504 264.98722,139.60587 259.78125,137.875 C 246.18416,133.35428 236.45548,121.77651 233.96875,107.15625 C 233.49262,104.35691 233.51979,98.487738 234,95.65625 C 236.75764,79.39617 249.00855,66.52229 264.6875,63.46875 C 267.8929,62.84449 270.46998,62.77192 274.78125,63.1875 C 278.40618,63.53692 279.06591,63.689822 282.03125,64.625 C 285.64489,65.76464 285.54847,65.696727 289.71875,68.03125 C 291.96506,69.28872 293.48957,70.365551 296,72.4375 C 297.81901,73.93881 299.39228,75.156251 299.5,75.15625 C 299.6167,75.15625 299.6875,72.5207 299.6875,68.65625 C 299.6875,62.7454 299.64785,62.16889 299.3125,61.875 C 298.12288,60.83252 292.31668,57.528109 289.5625,56.34375 C 283.86396,53.89325 277.06931,52.747124 270.28125,52.9375 z M 439.71875,52.9375 C 438.81099,52.906756 438.00666,52.954133 436.71875,53.0625 C 429.47653,53.67188 423.89007,56.311609 419.21875,61.28125 C 414.80233,65.97968 412.91854,71.445483 413.25,78.625 C 413.50423,84.13171 415.00521,87.662163 418.71875,91.5 C 421.86547,94.75208 425.25366,97.010241 431.625,100.03125 C 433.73893,101.03359 435.50696,101.84375 435.5625,101.84375 C 435.81686,101.84375 445.54718,106.57336 446.875,107.34375 C 451.00831,109.74187 453.72996,112.51301 455.125,115.75 C 457.93618,122.27299 455.41777,131.04449 449.46875,135.53125 C 446.59606,137.69783 443.23857,139.11197 439.96875,139.5625 C 435.10941,140.23205 430.02888,138.95764 426.3125,136.125 C 423.11956,133.69133 420.7982,129.96698 419.25,124.78125 C 418.92802,123.70273 418.61884,122.77509 418.5625,122.71875 C 418.50616,122.66241 416.25515,123.2408 413.53125,124 C 410.80735,124.7592 408.53038,125.375 408.46875,125.375 C 408.22261,125.375 408.37114,126.18328 409.15625,128.71875 C 410.83558,134.1418 412.96897,137.78934 416.625,141.53125 C 420.30549,145.29822 424.48545,147.68769 429.34375,148.78125 C 430.67302,149.08046 432.05947,149.36147 432.40625,149.40625 C 433.78657,149.58451 440.4898,149.5454 442.25,149.34375 C 450.82424,148.36147 459.40184,142.48042 463.625,134.6875 C 468.29074,126.07793 468.21999,114.53879 463.46875,107.75 C 462.20786,105.94837 459.29307,102.9522 457.28125,101.40625 C 454.17715,99.02091 449.08052,96.237678 443.84375,94.0625 C 440.08195,92.49998 433.53524,89.347378 431.5,88.125 C 427.87644,85.94865 425.82424,83.809687 424.625,80.9375 C 424.06736,79.60197 424.00104,79.225332 424,77.03125 C 423.99867,74.31606 424.40734,72.778979 425.71875,70.40625 C 428.54748,65.2883 434.83006,62.29162 441.375,62.96875 C 446.69676,63.51933 450.23794,65.828497 454,71.15625 C 454.61188,72.02279 455.2704,72.750637 455.4375,72.78125 C 455.76986,72.84213 463.6434,67.809512 463.75,67.46875 C 463.78617,67.35316 462.7682,65.858831 461.46875,64.125 C 459.37025,61.325 458.80167,60.71479 456.375,58.71875 C 453.74549,56.55584 453.5102,56.427564 450.375,55.125 C 447.15686,53.787975 447.06585,53.771115 443.34375,53.3125 C 441.64264,53.102899 440.62651,52.968244 439.71875,52.9375 z M 320.5,54.5625 L 320.5,101.3125 L 320.5,148.09375 L 325.84375,148.09375 L 331.21875,148.09375 L 331.21875,125.53125 C 331.21875,108.27234 331.27576,102.91177 331.46875,102.71875 C 331.8348,102.35271 377.88396,102.35271 378.25,102.71875 C 378.44301,102.91177 378.49999,108.27234 378.5,125.53125 L 378.5,148.09375 L 383.84375,148.09375 L 389.21875,148.09375 L 389.21875,101.3125 L 389.21875,54.5625 L 383.84375,54.5625 L 378.5,54.5625 L 378.5,73.3125 C 378.5,87.62916 378.44238,92.151358 378.25,92.34375 C 377.88396,92.70979 331.83481,92.709788 331.46875,92.34375 C 331.27638,92.15136 331.21874,87.629158 331.21875,73.3125 L 331.21875,54.5625 L 325.84375,54.5625 L 320.5,54.5625 z M 486.09375,54.5625 L 486.09375,101.3125 L 486.09375,148.09375 L 510.46875,148.09375 L 534.84375,148.09375 L 534.84375,143.125 L 534.84375,138.1875 L 516.09375,138.1875 C 501.7771,138.1875 497.25488,138.1299 497.0625,137.9375 C 496.87035,137.74535 496.81249,133.49791 496.8125,120.03125 C 496.8125,106.56458 496.87034,102.2859 497.0625,102.09375 C 497.25478,101.90147 501.65446,101.84375 515.5625,101.84375 L 533.8125,101.84375 L 533.8125,96.90625 L 533.8125,91.96875 L 515.5625,91.96875 C 501.65449,91.96875 497.25477,91.911031 497.0625,91.71875 C 496.87168,91.52793 496.81249,88.221538 496.8125,78.1875 C 496.8125,68.15347 496.87167,64.878317 497.0625,64.6875 C 497.25489,64.49511 501.77709,64.437502 516.09375,64.4375 L 534.84375,64.4375 L 534.84375,59.5 L 534.84375,54.5625 L 510.46875,54.5625 L 486.09375,54.5625 z M 176.625,75.25 C 176.86046,75.25 191.67592,111.14194 191.5625,111.4375 C 191.40519,111.84744 161.43857,111.84746 161.28125,111.4375 C 161.16794,111.14225 176.38646,75.250001 176.625,75.25 z "
         style="fill:black" />
    </g>
  </g>
</svg>
